<?xml version="1.0" encoding="UTF-8" standalone="no"?>
<svg
   aria-hidden="false"
   aria-label="Interactive chart"
   viewBox="0 0 590 293"
   height="293"
   width="590"
   style="font-size:12px;font-family:Roboto"
   class="highcharts-root"
   version="1.1"
   id="svg123"
   sodipodi:docname="slovenian-holidays-chart.svg"
   inkscape:version="1.4 (e7c3feb100, 2024-10-09)"
   xmlns:inkscape="http://www.inkscape.org/namespaces/inkscape"
   xmlns:sodipodi="http://sodipodi.sourceforge.net/DTD/sodipodi-0.dtd"
   xmlns="http://www.w3.org/2000/svg"
   xmlns:svg="http://www.w3.org/2000/svg">
  <sodipodi:namedview
     id="namedview1"
     pagecolor="#ffffff"
     bordercolor="#000000"
     borderopacity="0.25"
     inkscape:showpageshadow="2"
     inkscape:pageopacity="0.0"
     inkscape:pagecheckerboard="0"
     inkscape:deskcolor="#d1d1d1"
     showguides="true"
     inkscape:zoom="1.512689"
     inkscape:cx="80.320541"
     inkscape:cy="91.889343"
     inkscape:window-width="3376"
     inkscape:window-height="1371"
     inkscape:window-x="0"
     inkscape:window-y="0"
     inkscape:window-maximized="1"
     inkscape:current-layer="g122">
    <sodipodi:guide
       position="32.67541,309.06914"
       orientation="1,0"
       id="guide1"
       inkscape:locked="false" />
  </sodipodi:namedview>
  <desc
     aria-hidden="true"
     id="desc1">Created with Highcharts 10.3.1</desc>
  <defs
     aria-hidden="true"
     id="defs2">
    <clipPath
       id="highcharts-vi38dzo-842-">
      <rect
         fill="none"
         height="340"
         width="553"
         y="0"
         x="0"
         id="rect2" />
    </clipPath>
  </defs>
  <rect
     aria-hidden="true"
     height="340"
     width="553"
     y="9.9999895"
     x="37"
     class="highcharts-plot-background"
     fill="none"
     id="rect4" />
  <g
     aria-hidden="true"
     data-z-index="0"
     class="highcharts-pane-group"
     id="g4" />
  <g
     aria-hidden="true"
     data-z-index="1"
     class="highcharts-grid highcharts-xaxis-grid"
     id="g28">
    <path
       opacity="1"
       d="M 42.5,10 V 350"
       class="highcharts-grid-line"
       data-z-index="1"
       stroke-dasharray="none"
       fill="none"
       id="path4" />
    <path
       opacity="1"
       d="M 64.5,10 V 350"
       class="highcharts-grid-line"
       data-z-index="1"
       stroke-dasharray="none"
       fill="none"
       id="path5" />
    <path
       opacity="1"
       d="M 86.5,10 V 350"
       class="highcharts-grid-line"
       data-z-index="1"
       stroke-dasharray="none"
       fill="none"
       id="path6" />
    <path
       opacity="1"
       d="M 108.5,10 V 350"
       class="highcharts-grid-line"
       data-z-index="1"
       stroke-dasharray="none"
       fill="none"
       id="path7" />
    <path
       opacity="1"
       d="M 130.5,10 V 350"
       class="highcharts-grid-line"
       data-z-index="1"
       stroke-dasharray="none"
       fill="none"
       id="path8" />
    <path
       opacity="1"
       d="M 152.5,10 V 350"
       class="highcharts-grid-line"
       data-z-index="1"
       stroke-dasharray="none"
       fill="none"
       id="path9" />
    <path
       opacity="1"
       d="M 174.5,10 V 350"
       class="highcharts-grid-line"
       data-z-index="1"
       stroke-dasharray="none"
       fill="none"
       id="path10" />
    <path
       opacity="1"
       d="M 196.5,10 V 350"
       class="highcharts-grid-line"
       data-z-index="1"
       stroke-dasharray="none"
       fill="none"
       id="path11" />
    <path
       opacity="1"
       d="M 218.5,10 V 350"
       class="highcharts-grid-line"
       data-z-index="1"
       stroke-dasharray="none"
       fill="none"
       id="path12" />
    <path
       opacity="1"
       d="M 241.5,10 V 350"
       class="highcharts-grid-line"
       data-z-index="1"
       stroke-dasharray="none"
       fill="none"
       id="path13" />
    <path
       opacity="1"
       d="M 263.5,10 V 350"
       class="highcharts-grid-line"
       data-z-index="1"
       stroke-dasharray="none"
       fill="none"
       id="path14" />
    <path
       opacity="1"
       d="M 285.5,10 V 350"
       class="highcharts-grid-line"
       data-z-index="1"
       stroke-dasharray="none"
       fill="none"
       id="path15" />
    <path
       opacity="1"
       d="M 307.5,10 V 350"
       class="highcharts-grid-line"
       data-z-index="1"
       stroke-dasharray="none"
       fill="none"
       id="path16" />
    <path
       opacity="1"
       d="M 329.5,10 V 350"
       class="highcharts-grid-line"
       data-z-index="1"
       stroke-dasharray="none"
       fill="none"
       id="path17" />
    <path
       opacity="1"
       d="M 351.5,10 V 350"
       class="highcharts-grid-line"
       data-z-index="1"
       stroke-dasharray="none"
       fill="none"
       id="path18" />
    <path
       opacity="1"
       d="M 373.5,10 V 350"
       class="highcharts-grid-line"
       data-z-index="1"
       stroke-dasharray="none"
       fill="none"
       id="path19" />
    <path
       opacity="1"
       d="M 395.5,10 V 350"
       class="highcharts-grid-line"
       data-z-index="1"
       stroke-dasharray="none"
       fill="none"
       id="path20" />
    <path
       opacity="1"
       d="M 418.5,10 V 350"
       class="highcharts-grid-line"
       data-z-index="1"
       stroke-dasharray="none"
       fill="none"
       id="path21" />
    <path
       opacity="1"
       d="M 440.5,10 V 350"
       class="highcharts-grid-line"
       data-z-index="1"
       stroke-dasharray="none"
       fill="none"
       id="path22" />
    <path
       opacity="1"
       d="M 462.5,10 V 350"
       class="highcharts-grid-line"
       data-z-index="1"
       stroke-dasharray="none"
       fill="none"
       id="path23" />
    <path
       opacity="1"
       d="M 484.5,10 V 350"
       class="highcharts-grid-line"
       data-z-index="1"
       stroke-dasharray="none"
       fill="none"
       id="path24" />
    <path
       opacity="1"
       d="M 506.5,10 V 350"
       class="highcharts-grid-line"
       data-z-index="1"
       stroke-dasharray="none"
       fill="none"
       id="path25" />
    <path
       opacity="1"
       d="M 528.5,10 V 350"
       class="highcharts-grid-line"
       data-z-index="1"
       stroke-dasharray="none"
       fill="none"
       id="path26" />
    <path
       opacity="1"
       d="M 550.5,10 V 350"
       class="highcharts-grid-line"
       data-z-index="1"
       stroke-dasharray="none"
       fill="none"
       id="path27" />
    <path
       opacity="1"
       d="M 572.5,10 V 350"
       class="highcharts-grid-line"
       data-z-index="1"
       stroke-dasharray="none"
       fill="none"
       id="path28" />
  </g>
  <g
     aria-hidden="true"
     data-z-index="1"
     class="highcharts-grid highcharts-yaxis-grid"
     id="g34">
    <path
       opacity="1"
       d="M 37,282.5 H 590"
       class="highcharts-grid-line"
       data-z-index="1"
       stroke-dasharray="none"
       stroke-width="1"
       stroke="#e6e6e6"
       fill="none"
       id="path30" />
    <path
       opacity="1"
       d="M 37,214.5 H 590"
       class="highcharts-grid-line"
       data-z-index="1"
       stroke-dasharray="none"
       stroke-width="1"
       stroke="#e6e6e6"
       fill="none"
       id="path31" />
    <path
       opacity="1"
       d="M 37,146.5 H 590"
       class="highcharts-grid-line"
       data-z-index="1"
       stroke-dasharray="none"
       stroke-width="1"
       stroke="#e6e6e6"
       fill="none"
       id="path32" />
    <path
       opacity="1"
       d="M 37,78.5 H 590"
       class="highcharts-grid-line"
       data-z-index="1"
       stroke-dasharray="none"
       stroke-width="1"
       stroke="#e6e6e6"
       fill="none"
       id="path33" />
    <path
       opacity="1"
       d="M 37,9.5 H 590"
       class="highcharts-grid-line"
       data-z-index="1"
       stroke-dasharray="none"
       stroke-width="1"
       stroke="#e6e6e6"
       fill="none"
       id="path34" />
  </g>
  <rect
     aria-hidden="true"
     height="340"
     width="553"
     y="9.9999895"
     x="37"
     data-z-index="1"
     class="highcharts-plot-border"
     fill="none"
     id="rect34" />
  <g
     aria-hidden="true"
     data-z-index="2"
     class="highcharts-axis highcharts-yaxis"
     id="g36">
    <path
       d="M 37,10 V 350"
       data-z-index="7"
       class="highcharts-axis-line"
       fill="none"
       id="path36" />
  </g>
  <g
     aria-hidden="false"
     data-z-index="3"
     class="highcharts-series-group"
     id="g88">
    <g
       aria-hidden="true"
       clip-path="url(#highcharts-vi38dzo-842-)"
       transform="translate(37,10)"
       opacity="1"
       data-z-index="0.1"
       class="highcharts-series highcharts-series-0 highcharts-spline-series"
       id="g37">
      <path
         stroke-linecap="round"
         stroke-linejoin="round"
         stroke-width="2"
         stroke="#d700ff"
         data-z-index="1"
         class="highcharts-graph"
         d="m 5.53,136 c 0,0 6.636,74.8 11.06,102 4.424,27.2 6.636,34 11.06,34 4.424,0 6.636,-88.4 11.06,-136 4.424,-47.6 6.636,-102 11.06,-102 4.424,0 6.636,13.6 11.06,34 4.424,20.4 6.636,27.2 11.06,68 4.424,40.8 6.636,136 11.06,136 4.424,0 6.636,-34 11.06,-68 4.424,-34 6.636,-68 11.06,-102 4.424,-34 6.636,-68 11.06,-68 4.424,0 6.636,27.2 11.06,68 4.424,40.8 6.636,102 11.06,136 4.424,34 6.636,34 11.06,34 4.424,0 6.636,-27.2 11.06,-68 4.424,-40.8 6.636,-136 11.06,-136 4.424,0 6.636,0 11.06,0 4.424,0 6.636,34 11.06,68 4.424,34 6.636,102 11.06,102 4.424,0 6.636,-40.8 11.06,-68 4.424,-27.2 6.636,-40.8 11.06,-68 4.424,-27.2 6.636,-68 11.06,-68 4.424,0 6.636,0 11.06,34 4.424,34 6.636,136 11.06,170 4.424,34 6.636,34 11.06,34 4.424,0 6.636,-34 11.06,-68 4.424,-34 6.636,-74.8 11.06,-102 4.424,-27.2 6.636,-34 11.06,-34 4.424,0 6.636,34 11.06,68 4.424,34 6.636,74.8 11.06,102 4.424,27.2 6.636,34 11.06,34 4.424,0 6.636,-88.4 11.06,-136 4.424,-47.6 6.636,-102 11.06,-102 4.424,0 6.636,13.6 11.06,34 4.424,20.4 6.636,27.2 11.06,68 4.424,40.8 6.636,136 11.06,136 4.424,0 6.636,-34 11.06,-68 4.424,-34 6.636,-68 11.06,-102 4.424,-34 6.636,-68 11.06,-68 4.424,0 6.636,27.2 11.06,68 4.424,40.8 6.636,102 11.06,136 4.424,34 6.636,34 11.06,34 4.424,0 6.636,-27.2 11.06,-68 4.424,-40.8 6.636,-136 11.06,-136 4.424,0 6.636,0 11.06,0 4.424,0 6.636,34 11.06,68 4.424,34 6.636,102 11.06,102 4.424,0 6.636,-40.8 11.06,-68 4.424,-27.2 6.636,-40.8 11.06,-68 4.424,-27.2 11.06,-68 11.06,-68"
         fill="none"
         id="path37" />
    </g>
    <g
       aria-hidden="false"
       clip-path="none"
       transform="translate(37,10)"
       opacity="1"
       data-z-index="0.1"
       class="highcharts-markers highcharts-series-0 highcharts-spline-series"
       id="g87">
      <path
         aria-label="2025, 10. 12."
         role="img"
         tabindex="-1"
         class="highcharts-point"
         opacity="0"
         d="m 5,140 a 4,4 0 1 1 0.004,0 z"
         fill="#d700ff"
         id="path38" />
      <path
         aria-label="2026, 7. 12."
         role="img"
         tabindex="-1"
         class="highcharts-point"
         opacity="0"
         d="m 16,242 a 4,4 0 1 1 0.004,0 z"
         fill="#d700ff"
         id="path39" />
      <path
         aria-label="2027, 6. 12."
         role="img"
         tabindex="-1"
         class="highcharts-point"
         opacity="0"
         d="m 27,276 a 4,4 0 1 1 0.004,0 z"
         fill="#d700ff"
         id="path40" />
      <path
         aria-label="2028, 10. 12."
         role="img"
         tabindex="-1"
         class="highcharts-point"
         opacity="0"
         d="m 38,140 a 4,4 0 1 1 0.004,0 z"
         fill="#d700ff"
         id="path41" />
      <path
         aria-label="2029, 13. 12."
         role="img"
         tabindex="-1"
         class="highcharts-point"
         opacity="0"
         d="m 49,38 a 4,4 0 1 1 0.004,-2e-6 z"
         fill="#d700ff"
         id="path42" />
      <path
         aria-label="2030, 12. 12."
         role="img"
         tabindex="-1"
         class="highcharts-point"
         opacity="0"
         d="m 60,72 a 4,4 0 1 1 0.004,-2e-6 z"
         fill="#d700ff"
         id="path43" />
      <path
         aria-label="2031, 10. 12."
         role="img"
         tabindex="-1"
         class="highcharts-point"
         opacity="0"
         d="m 71,140 a 4,4 0 1 1 0.004,0 z"
         fill="#d700ff"
         id="path44" />
      <path
         aria-label="2032, 6. 12."
         role="img"
         tabindex="-1"
         class="highcharts-point"
         opacity="0"
         d="m 82,276 a 4,4 0 1 1 0.004,0 z"
         fill="#d700ff"
         id="path45" />
      <path
         aria-label="2033, 8. 12."
         role="img"
         tabindex="-1"
         class="highcharts-point"
         opacity="0"
         d="m 94,208 a 4,4 0 1 1 0.004,0 z"
         fill="#d700ff"
         id="path46" />
      <path
         aria-label="2034, 11. 12."
         role="img"
         tabindex="-1"
         class="highcharts-point"
         opacity="0"
         d="m 105,106 a 4,4 0 1 1 0.004,0 z"
         fill="#d700ff"
         id="path47" />
      <path
         aria-label="2035, 13. 12."
         role="img"
         tabindex="-1"
         class="highcharts-point"
         opacity="0"
         d="m 116,38 a 4,4 0 1 1 0.004,-2e-6 z"
         fill="#d700ff"
         id="path48" />
      <path
         aria-label="2036, 11. 12."
         role="img"
         tabindex="-1"
         class="highcharts-point"
         opacity="0"
         d="m 127,106 a 4,4 0 1 1 0.004,0 z"
         fill="#d700ff"
         id="path49" />
      <path
         aria-label="2037, 7. 12."
         role="img"
         tabindex="-1"
         class="highcharts-point"
         opacity="0"
         d="m 138,242 a 4,4 0 1 1 0.004,0 z"
         fill="#d700ff"
         id="path50" />
      <path
         aria-label="2038, 6. 12."
         role="img"
         tabindex="-1"
         class="highcharts-point"
         opacity="0"
         d="m 149,276 a 4,4 0 1 1 0.004,0 z"
         fill="#d700ff"
         id="path51" />
      <path
         aria-label="2039, 8. 12."
         role="img"
         tabindex="-1"
         class="highcharts-point"
         opacity="0"
         d="m 160,208 a 4,4 0 1 1 0.004,0 z"
         fill="#d700ff"
         id="path52" />
      <path
         aria-label="2040, 12. 12."
         role="img"
         tabindex="-1"
         class="highcharts-point"
         opacity="0"
         d="m 171,72 a 4,4 0 1 1 0.004,-2e-6 z"
         fill="#d700ff"
         id="path53" />
      <path
         aria-label="2041, 12. 12."
         role="img"
         tabindex="-1"
         class="highcharts-point"
         opacity="0"
         d="m 182,72 a 4,4 0 1 1 0.004,-2e-6 z"
         fill="#d700ff"
         id="path54" />
      <path
         aria-label="2042, 10. 12."
         role="img"
         tabindex="-1"
         class="highcharts-point"
         opacity="0"
         d="m 193,140 a 4,4 0 1 1 0.004,0 z"
         fill="#d700ff"
         id="path55" />
      <path
         aria-label="2043, 7. 12."
         role="img"
         tabindex="-1"
         class="highcharts-point"
         opacity="0"
         d="m 204,242 a 4,4 0 1 1 0.004,0 z"
         fill="#d700ff"
         id="path56" />
      <path
         aria-label="2044, 9. 12."
         role="img"
         tabindex="-1"
         class="highcharts-point"
         opacity="0"
         d="m 215,174 a 4,4 0 1 1 0.004,0 z"
         fill="#d700ff"
         id="path57" />
      <path
         aria-label="2045, 11. 12."
         role="img"
         tabindex="-1"
         class="highcharts-point"
         opacity="0"
         d="m 226,106 a 4,4 0 1 1 0.004,0 z"
         fill="#d700ff"
         id="path58" />
      <path
         aria-label="2046, 13. 12."
         role="img"
         tabindex="-1"
         class="highcharts-point"
         opacity="0"
         d="m 237,38 a 4,4 0 1 1 0.004,-2e-6 z"
         fill="#d700ff"
         id="path59" />
      <path
         aria-label="2047, 12. 12."
         role="img"
         tabindex="-1"
         class="highcharts-point"
         opacity="0"
         d="m 248,72 a 4,4 0 1 1 0.004,-2e-6 z"
         fill="#d700ff"
         id="path60" />
      <path
         aria-label="2048, 7. 12."
         role="img"
         tabindex="-1"
         class="highcharts-point"
         opacity="0"
         d="m 259,242 a 4,4 0 1 1 0.004,0 z"
         fill="#d700ff"
         id="path61" />
      <path
         aria-label="2049, 6. 12."
         role="img"
         tabindex="-1"
         class="highcharts-point"
         opacity="0"
         d="m 270,276 a 4,4 0 1 1 0.004,0 z"
         fill="#d700ff"
         id="path62" />
      <path
         aria-label="2050, 8. 12."
         role="img"
         tabindex="-1"
         class="highcharts-point"
         opacity="0"
         d="m 282,208 a 4,4 0 1 1 0.004,0 z"
         fill="#d700ff"
         id="path63" />
      <path
         aria-label="2051, 11. 12."
         role="img"
         tabindex="-1"
         class="highcharts-point"
         opacity="0"
         d="m 293,106 a 4,4 0 1 1 0.004,0 z"
         fill="#d700ff"
         id="path64" />
      <path
         aria-label="2052, 12. 12."
         role="img"
         tabindex="-1"
         class="highcharts-point"
         opacity="0"
         d="m 304,72 a 4,4 0 1 1 0.004,-2e-6 z"
         fill="#d700ff"
         id="path65" />
      <path
         aria-label="2053, 10. 12."
         role="img"
         tabindex="-1"
         class="highcharts-point"
         opacity="0"
         d="m 315,140 a 4,4 0 1 1 0.004,0 z"
         fill="#d700ff"
         id="path66" />
      <path
         aria-label="2054, 7. 12."
         role="img"
         tabindex="-1"
         class="highcharts-point"
         opacity="0"
         d="m 326,242 a 4,4 0 1 1 0.004,0 z"
         fill="#d700ff"
         id="path67" />
      <path
         aria-label="2055, 6. 12."
         role="img"
         tabindex="-1"
         class="highcharts-point"
         opacity="0"
         d="m 337,276 a 4,4 0 1 1 0.004,0 z"
         fill="#d700ff"
         id="path68" />
      <path
         aria-label="2056, 10. 12."
         role="img"
         tabindex="-1"
         class="highcharts-point"
         opacity="0"
         d="m 348,140 a 4,4 0 1 1 0.004,0 z"
         fill="#d700ff"
         id="path69" />
      <path
         aria-label="2057, 13. 12."
         role="img"
         tabindex="-1"
         class="highcharts-point"
         opacity="0"
         d="m 359,38 a 4,4 0 1 1 0.004,-2e-6 z"
         fill="#d700ff"
         id="path70" />
      <path
         aria-label="2058, 12. 12."
         role="img"
         tabindex="-1"
         class="highcharts-point"
         opacity="0"
         d="m 370,72 a 4,4 0 1 1 0.004,-2e-6 z"
         fill="#d700ff"
         id="path71" />
      <path
         aria-label="2059, 10. 12."
         role="img"
         tabindex="-1"
         class="highcharts-point"
         opacity="0"
         d="m 381,140 a 4,4 0 1 1 0.004,0 z"
         fill="#d700ff"
         id="path72" />
      <path
         aria-label="2060, 6. 12."
         role="img"
         tabindex="-1"
         class="highcharts-point"
         opacity="0"
         d="m 392,276 a 4,4 0 1 1 0.004,0 z"
         fill="#d700ff"
         id="path73" />
      <path
         aria-label="2061, 8. 12."
         role="img"
         tabindex="-1"
         class="highcharts-point"
         opacity="0"
         d="m 403,208 a 4,4 0 1 1 0.004,0 z"
         fill="#d700ff"
         id="path74" />
      <path
         aria-label="2062, 11. 12."
         role="img"
         tabindex="-1"
         class="highcharts-point"
         opacity="0"
         d="m 414,106 a 4,4 0 1 1 0.004,0 z"
         fill="#d700ff"
         id="path75" />
      <path
         aria-label="2063, 13. 12."
         role="img"
         tabindex="-1"
         class="highcharts-point"
         opacity="0"
         d="m 425,38 a 4,4 0 1 1 0.004,-2e-6 z"
         fill="#d700ff"
         id="path76" />
      <path
         aria-label="2064, 11. 12."
         role="img"
         tabindex="-1"
         class="highcharts-point"
         opacity="0"
         d="m 436,106 a 4,4 0 1 1 0.004,0 z"
         fill="#d700ff"
         id="path77" />
      <path
         aria-label="2065, 7. 12."
         role="img"
         tabindex="-1"
         class="highcharts-point"
         opacity="0"
         d="m 447,242 a 4,4 0 1 1 0.004,0 z"
         fill="#d700ff"
         id="path78" />
      <path
         aria-label="2066, 6. 12."
         role="img"
         tabindex="-1"
         class="highcharts-point"
         opacity="0"
         d="m 458,276 a 4,4 0 1 1 0.004,0 z"
         fill="#d700ff"
         id="path79" />
      <path
         aria-label="2067, 8. 12."
         role="img"
         tabindex="-1"
         class="highcharts-point"
         opacity="0"
         d="m 470,208 a 4,4 0 1 1 0.004,0 z"
         fill="#d700ff"
         id="path80" />
      <path
         aria-label="2068, 12. 12."
         role="img"
         tabindex="-1"
         class="highcharts-point"
         opacity="0"
         d="m 481,72 a 4,4 0 1 1 0.004,-2e-6 z"
         fill="#d700ff"
         id="path81" />
      <path
         aria-label="2069, 12. 12."
         role="img"
         tabindex="-1"
         class="highcharts-point"
         opacity="0"
         d="m 492,72 a 4,4 0 1 1 0.004,-2e-6 z"
         fill="#d700ff"
         id="path82" />
      <path
         aria-label="2070, 10. 12."
         role="img"
         tabindex="-1"
         class="highcharts-point"
         opacity="0"
         d="m 503,140 a 4,4 0 1 1 0.004,0 z"
         fill="#d700ff"
         id="path83" />
      <path
         aria-label="2071, 7. 12."
         role="img"
         tabindex="-1"
         class="highcharts-point"
         opacity="0"
         d="m 514,242 a 4,4 0 1 1 0.004,0 z"
         fill="#d700ff"
         id="path84" />
      <path
         aria-label="2072, 9. 12."
         role="img"
         tabindex="-1"
         class="highcharts-point"
         opacity="0"
         d="m 525,174 a 4,4 0 1 1 0.004,0 z"
         fill="#d700ff"
         id="path85" />
      <path
         aria-label="2073, 11. 12."
         role="img"
         tabindex="-1"
         class="highcharts-point"
         opacity="0"
         d="m 536,106 a 4,4 0 1 1 0.004,0 z"
         fill="#d700ff"
         id="path86" />
      <path
         aria-label="2074, 13. 12."
         role="img"
         tabindex="-1"
         class="highcharts-point"
         opacity="0"
         d="m 547,38 a 4,4 0 1 1 0.004,-2e-6 z"
         fill="#d700ff"
         id="path87" />
    </g>
  </g>
  <text
     aria-hidden="true"
     y="24.000004"
     style="color:#333333;font-size:18px;fill:#333333"
     data-z-index="4"
     class="highcharts-title"
     text-anchor="middle"
     x="300"
     id="text88" />
  <text
     aria-hidden="true"
     y="24.000004"
     style="color:#666666;fill:#666666"
     data-z-index="4"
     class="highcharts-subtitle"
     text-anchor="middle"
     x="300"
     id="text89" />
  <text
     aria-hidden="true"
     y="397"
     style="color:#666666;fill:#666666"
     data-z-index="4"
     class="highcharts-caption"
     text-anchor="start"
     x="9.999999"
     id="text90" />
  <g
     aria-hidden="true"
     visibility="hidden"
     data-z-index="7"
     class="highcharts-legend highcharts-no-tooltip"
     id="g92">
    <rect
       height="8"
       width="8"
       y="0"
       x="0"
       ry="0"
       rx="0"
       class="highcharts-legend-box"
       fill="none"
       id="rect90" />
    <g
       data-z-index="1"
       id="g91">
      <g
         id="g90" />
    </g>
  </g>
  <g
     aria-hidden="true"
     data-z-index="7"
     class="highcharts-axis-labels highcharts-yaxis-labels"
     id="g122">
    <text
       opacity="1"
       y="288.87881"
       text-anchor="end"
       style="color:#666666;font-size:19.0736px;fill:#b3b3b3;stroke-width:1.73396"
       x="32.454247"
       id="text118">6</text>
    <text
       opacity="1"
       y="220.54828"
       text-anchor="end"
       style="color:#666666;font-size:19.0736px;fill:#b3b3b3;stroke-width:1.73396"
       x="33.163761"
       id="text119">8</text>
    <text
       opacity="1"
       y="152.207"
       text-anchor="end"
       style="color:#666666;font-size:19.0476px;fill:#b3b3b3;stroke-width:1.7316"
       x="32.804005"
       id="text120">10</text>
    <text
       opacity="1"
       y="84.408455"
       style="color:#666666;font-size:19.337px;fill:#b3b3b3;stroke-width:1.75791"
       text-anchor="end"
       x="33.109287"
       id="text121">12</text>
    <text
       opacity="1"
       y="16.226547"
       style="color:#666666;font-size:19.4986px;fill:#b3b3b3;stroke-width:1.7726"
       text-anchor="end"
       x="32.081562"
       id="text122">14</text>
  </g>
</svg>
